<svg width="1300" height="881" viewBox="0 0 1300 881" fill="none" xmlns="http://www.w3.org/2000/svg">
<path d="M1128 232C1128 308.768 1065.77 371 989 371C912.232 371 850 308.768 850 232C850 155.232 912.232 93 989 93C1065.77 93 1128 155.232 1128 232Z" fill="url(#paint0_linear_1_1589)"/>
<circle cx="57.5002" cy="319.502" r="42.5" fill="white" fill-opacity="0.1"/>
<circle cx="147.5" cy="733.5" r="147.5" fill="url(#paint1_linear_1_1589)"/>
<circle cx="102.5" cy="741.5" r="98.5" fill="url(#paint2_linear_1_1589)"/>
<path d="M1214.06 80.4171C1210.04 62.1004 1218.59 54.1674 1239.69 56.618C1260.79 59.0686 1269.33 51.1355 1265.32 32.8188C1261.3 14.5021 1269.84 6.56909 1290.94 9.01967" stroke="#5F6C81" stroke-width="2"/>
<path d="M116.323 156.306C90.2934 160.927 79.6028 148.444 84.2509 118.856C88.8989 89.2685 78.2083 76.7855 52.1791 81.4073C26.1498 86.0292 15.4592 73.5462 20.1073 43.9583" stroke="#4C75F2" stroke-width="2"/>
<path d="M1152.62 571.52C1163.51 583.319 1161.35 588.066 1146.16 585.762C1126.42 582.127 1124.27 586.875 1139.7 600.003C1154.85 613.733 1152.7 618.481 1133.24 614.245C1112.25 609.507 1110.1 614.254 1126.78 628.487C1143.38 642.875 1141.23 647.622 1120.32 642.728C1101.83 638.658 1099.68 643.405 1113.86 656.97C1128.14 670.305 1125.98 675.052 1107.4 671.211" stroke="white" stroke-width="2"/>
<defs>
<linearGradient id="paint0_linear_1_1589" x1="857.798" y1="130.221" x2="1169.93" y2="201.601" gradientUnits="userSpaceOnUse">
<stop stop-color="#74F9EF"/>
<stop offset="0.322917" stop-color="#C7A4FF"/>
<stop offset="0.690691" stop-color="#FFE1B1"/>
<stop offset="1" stop-color="#FFACC8"/>
</linearGradient>
<linearGradient id="paint1_linear_1_1589" x1="147.5" y1="586" x2="147.5" y2="881" gradientUnits="userSpaceOnUse">
<stop stop-color="#3DBDFF"/>
<stop offset="1" stop-color="#62F7FF"/>
</linearGradient>
<linearGradient id="paint2_linear_1_1589" x1="102.5" y1="643" x2="102.5" y2="840" gradientUnits="userSpaceOnUse">
<stop stop-color="#3DBDFF"/>
<stop offset="1" stop-color="#62F7FF"/>
</linearGradient>
</defs>
</svg>
