<svg width="139" height="44" viewBox="0 0 139 44" fill="none" xmlns="http://www.w3.org/2000/svg">
<rect x="9.51791" width="51.8827" height="15.6192" rx="7.80961" transform="rotate(37.5439 9.51791 0)" fill="#326BCA"/>
<rect x="2.94611" y="2.97363" width="44.5874" height="15.6056" rx="7.80279" fill="#3B82F6"/>
<rect x="2.94611" y="25.2671" width="44.5874" height="15.6056" rx="7.80279" fill="#3B82F6"/>
<mask id="path-4-outside-1_130_166" maskUnits="userSpaceOnUse" x="49.0001" y="4" width="86" height="36" fill="black">
<rect fill="white" x="49.0001" y="4" width="86" height="36"/>
<path d="M50.8641 39L59.6961 5.4H70.7361L79.5681 39H73.0401L71.2161 31.608H59.2161L57.3921 39H50.8641ZM60.7041 25.752H69.7281L65.6481 9.384H64.7841L60.7041 25.752ZM85.0299 39V5.4H106.15V11.16H91.3659V19.272H104.998V25.032H91.3659V39H85.0299ZM112.111 39V5.4H133.711V11.16H118.447V19.176H132.367V24.936H118.447V33.24H133.999V39H112.111Z"/>
</mask>
<path d="M50.8641 39L59.6961 5.4H70.7361L79.5681 39H73.0401L71.2161 31.608H59.2161L57.3921 39H50.8641ZM60.7041 25.752H69.7281L65.6481 9.384H64.7841L60.7041 25.752ZM85.0299 39V5.4H106.15V11.16H91.3659V19.272H104.998V25.032H91.3659V39H85.0299ZM112.111 39V5.4H133.711V11.16H118.447V19.176H132.367V24.936H118.447V33.24H133.999V39H112.111Z" fill="#3B82F6"/>
<path d="M50.8641 39L49.8969 38.7458L49.5672 40H50.8641V39ZM59.6961 5.4V4.4H58.9249L58.7289 5.14578L59.6961 5.4ZM70.7361 5.4L71.7032 5.14578L71.5072 4.4H70.7361V5.4ZM79.5681 39V40H80.8649L80.5352 38.7458L79.5681 39ZM73.0401 39L72.0692 39.2396L72.2568 40H73.0401V39ZM71.2161 31.608L72.1869 31.3684L71.9993 30.608H71.2161V31.608ZM59.2161 31.608V30.608H58.4328L58.2452 31.3684L59.2161 31.608ZM57.3921 39V40H58.1753L58.3629 39.2396L57.3921 39ZM60.7041 25.752L59.7338 25.5101L59.4242 26.752H60.7041V25.752ZM69.7281 25.752V26.752H71.0079L70.6984 25.5101L69.7281 25.752ZM65.6481 9.384L66.6184 9.14213L66.4294 8.384H65.6481V9.384ZM64.7841 9.384V8.384H64.0027L63.8138 9.14213L64.7841 9.384ZM51.8312 39.2542L60.6632 5.65422L58.7289 5.14578L49.8969 38.7458L51.8312 39.2542ZM59.6961 6.4H70.7361V4.4H59.6961V6.4ZM69.7689 5.65422L78.6009 39.2542L80.5352 38.7458L71.7032 5.14578L69.7689 5.65422ZM79.5681 38H73.0401V40H79.5681V38ZM74.0109 38.7604L72.1869 31.3684L70.2452 31.8476L72.0692 39.2396L74.0109 38.7604ZM71.2161 30.608H59.2161V32.608H71.2161V30.608ZM58.2452 31.3684L56.4212 38.7604L58.3629 39.2396L60.1869 31.8476L58.2452 31.3684ZM57.3921 38H50.8641V40H57.3921V38ZM60.7041 26.752H69.7281V24.752H60.7041V26.752ZM70.6984 25.5101L66.6184 9.14213L64.6778 9.62586L68.7578 25.9939L70.6984 25.5101ZM65.6481 8.384H64.7841V10.384H65.6481V8.384ZM63.8138 9.14213L59.7338 25.5101L61.6744 25.9939L65.7544 9.62586L63.8138 9.14213ZM85.0299 39H84.0299V40H85.0299V39ZM85.0299 5.4V4.4H84.0299V5.4H85.0299ZM106.15 5.4H107.15V4.4H106.15V5.4ZM106.15 11.16V12.16H107.15V11.16H106.15ZM91.3659 11.16V10.16H90.3659V11.16H91.3659ZM91.3659 19.272H90.3659V20.272H91.3659V19.272ZM104.998 19.272H105.998V18.272H104.998V19.272ZM104.998 25.032V26.032H105.998V25.032H104.998ZM91.3659 25.032V24.032H90.3659V25.032H91.3659ZM91.3659 39V40H92.3659V39H91.3659ZM86.0299 39V5.4H84.0299V39H86.0299ZM85.0299 6.4H106.15V4.4H85.0299V6.4ZM105.15 5.4V11.16H107.15V5.4H105.15ZM106.15 10.16H91.3659V12.16H106.15V10.16ZM90.3659 11.16V19.272H92.3659V11.16H90.3659ZM91.3659 20.272H104.998V18.272H91.3659V20.272ZM103.998 19.272V25.032H105.998V19.272H103.998ZM104.998 24.032H91.3659V26.032H104.998V24.032ZM90.3659 25.032V39H92.3659V25.032H90.3659ZM91.3659 38H85.0299V40H91.3659V38ZM112.111 39H111.111V40H112.111V39ZM112.111 5.4V4.4H111.111V5.4H112.111ZM133.711 5.4H134.711V4.4H133.711V5.4ZM133.711 11.16V12.16H134.711V11.16H133.711ZM118.447 11.16V10.16H117.447V11.16H118.447ZM118.447 19.176H117.447V20.176H118.447V19.176ZM132.367 19.176H133.367V18.176H132.367V19.176ZM132.367 24.936V25.936H133.367V24.936H132.367ZM118.447 24.936V23.936H117.447V24.936H118.447ZM118.447 33.24H117.447V34.24H118.447V33.24ZM133.999 33.24H134.999V32.24H133.999V33.24ZM133.999 39V40H134.999V39H133.999ZM113.111 39V5.4H111.111V39H113.111ZM112.111 6.4H133.711V4.4H112.111V6.4ZM132.711 5.4V11.16H134.711V5.4H132.711ZM133.711 10.16H118.447V12.16H133.711V10.16ZM117.447 11.16V19.176H119.447V11.16H117.447ZM118.447 20.176H132.367V18.176H118.447V20.176ZM131.367 19.176V24.936H133.367V19.176H131.367ZM132.367 23.936H118.447V25.936H132.367V23.936ZM117.447 24.936V33.24H119.447V24.936H117.447ZM118.447 34.24H133.999V32.24H118.447V34.24ZM132.999 33.24V39H134.999V33.24H132.999ZM133.999 38H112.111V40H133.999V38Z" fill="#3B82F6" mask="url(#path-4-outside-1_130_166)"/>
</svg>
